<svg xmlns="http://www.w3.org/2000/svg" xmlns:xlink="http://www.w3.org/1999/xlink" width="600" zoomAndPan="magnify" viewBox="0 0 450 149.999998" height="200" preserveAspectRatio="xMidYMid meet" version="1.0"><defs><clipPath id="c16df140c5"><path d="M 0 14.539062 L 450 14.539062 L 450 124.039062 L 0 124.039062 Z M 0 14.539062 " clip-rule="nonzero"/></clipPath></defs><g clip-path="url(#c16df140c5)"><path fill="#fac302" d="M 449.695312 61.023438 C 446.386719 59.324219 442.886719 59.039062 439.292969 59.984375 C 439.007812 60.078125 438.722656 60.078125 438.441406 60.171875 C 438.722656 56.773438 436.453125 55.730469 433.425781 55.730469 C 430.683594 55.730469 428.035156 56.300781 425.480469 57.148438 C 427.375 55.921875 429.832031 55.355469 430.023438 52.613281 C 429.925781 52.519531 429.925781 52.519531 429.832031 52.425781 C 429.832031 52.425781 429.925781 52.425781 429.925781 52.425781 C 429.925781 52.425781 429.925781 52.332031 429.925781 52.332031 C 430.683594 52.332031 431.441406 52.332031 432.199219 52.332031 C 434.75 51.667969 434.847656 51.667969 433.996094 50.0625 C 433.617188 49.308594 432.859375 48.550781 432.292969 47.890625 C 431.347656 47.511719 430.777344 47.796875 430.402344 48.363281 C 429.832031 47.890625 429.265625 47.417969 428.601562 47.136719 C 428.601562 47.136719 428.507812 47.136719 428.507812 47.136719 C 425.292969 46.566406 422.453125 48.269531 419.332031 48.175781 C 419.144531 48.175781 419.050781 48.078125 418.859375 48.078125 C 419.238281 47.324219 419.238281 46.566406 419.050781 45.71875 C 418.957031 45.527344 418.765625 45.246094 418.859375 45.246094 C 418.859375 45.246094 418.957031 45.246094 418.957031 45.246094 C 419.523438 45.625 420.089844 46 420.183594 45.90625 C 420.65625 45.433594 421.226562 45.152344 421.792969 44.960938 C 422.453125 44.960938 423.210938 44.867188 423.777344 44.679688 C 425.199219 44.585938 426.523438 44.488281 427.65625 43.640625 C 427.753906 43.355469 427.847656 43.074219 427.941406 42.789062 C 427.375 39.953125 426.050781 38.441406 422.929688 40.238281 C 422.929688 40.238281 423.304688 39.859375 423.304688 39.859375 C 423.402344 39.578125 423.402344 39.199219 423.402344 38.820312 C 424.0625 38.632812 425.101562 38.632812 425.386719 37.96875 C 427.5625 39.011719 429.644531 38.253906 431.726562 37.402344 C 432.292969 37.214844 432.574219 36.929688 432.574219 36.363281 C 432.480469 35.988281 432.292969 35.609375 432.101562 35.324219 C 433.710938 35.703125 435.222656 35.703125 436.644531 34.097656 C 436.644531 31.546875 436.644531 31.546875 432.199219 32.207031 C 431.820312 32.300781 431.441406 32.300781 431.0625 32.394531 C 430.496094 33.246094 429.644531 33.4375 428.699219 33.4375 C 428.601562 32.394531 428.226562 31.546875 426.902344 32.207031 C 426.238281 32.492188 425.765625 33.058594 425.199219 33.4375 C 425.101562 33.339844 424.914062 33.246094 424.820312 33.152344 C 424.441406 33.058594 423.96875 32.964844 423.496094 32.964844 C 423.402344 32.867188 423.402344 32.867188 423.304688 32.773438 C 422.929688 32.492188 422.644531 32.679688 422.550781 33.058594 C 421.507812 33.246094 420.5625 33.4375 419.617188 33.90625 C 419.804688 33.4375 419.902344 32.964844 419.332031 32.585938 C 418.386719 32.113281 417.632812 32.585938 417.253906 33.53125 C 417.15625 33.71875 417.15625 34.003906 417.0625 34.285156 C 416.96875 34.378906 416.875 34.378906 416.78125 34.476562 C 416.589844 34.378906 416.402344 34.378906 416.308594 34.378906 C 416.308594 34.191406 416.308594 33.90625 416.210938 33.71875 C 415.929688 32.773438 415.644531 31.925781 414.886719 31.167969 C 411.957031 29.183594 411.105469 31.453125 410.0625 33.246094 C 409.589844 32.867188 408.929688 32.773438 408.265625 32.867188 C 407.132812 33.339844 406.375 34.285156 405.523438 35.136719 C 404.863281 35.515625 404.671875 35.136719 404.578125 33.90625 C 404.484375 32.964844 404.199219 32.585938 403.441406 32.394531 C 403.441406 32.300781 403.441406 32.300781 403.441406 32.300781 C 400.984375 31.261719 404.011719 28.902344 402.214844 27.765625 C 398.714844 26.539062 395.6875 26.820312 393.699219 29.941406 C 392.847656 25.878906 388.96875 28.238281 386.320312 27.863281 C 384.808594 28.238281 384.050781 29.183594 383.578125 30.414062 C 382.445312 29.277344 380.742188 29.65625 379.324219 29.277344 C 379.226562 29.277344 379.226562 29.277344 379.132812 29.277344 C 378.945312 28.902344 378.847656 28.523438 378.660156 28.238281 C 379.699219 27.390625 379.890625 26.632812 378.566406 25.878906 C 377.714844 26.066406 376.957031 26.351562 376.296875 26.820312 C 375.917969 26.820312 375.539062 26.917969 375.066406 26.917969 C 375.066406 27.011719 375.066406 27.199219 375.066406 27.292969 C 374.78125 27.199219 374.59375 27.105469 374.308594 27.011719 C 373.363281 26.539062 372.324219 26.253906 371.28125 26.253906 C 370.714844 26.253906 370.242188 26.351562 369.769531 26.632812 C 369.578125 26.820312 369.296875 26.820312 369.105469 27.011719 C 368.351562 27.011719 367.6875 27.011719 366.929688 27.011719 C 364.472656 26.820312 364.566406 25.121094 364.472656 23.515625 C 365.039062 22.664062 365.703125 21.910156 366.742188 21.625 C 366.929688 22.191406 367.402344 22.476562 368.066406 22.570312 C 369.296875 22.570312 370.429688 22.476562 371.660156 22.476562 C 371.753906 22.289062 371.851562 22.191406 371.945312 22.003906 C 371.945312 22.003906 371.945312 22.003906 371.945312 21.910156 C 371.851562 22.097656 371.660156 22.382812 371.375 22.757812 C 372.324219 23.609375 373.363281 23.703125 374.59375 23.515625 C 375.160156 23.328125 375.632812 23.042969 376.105469 22.757812 C 376.578125 22.382812 377.050781 22.003906 377.523438 21.71875 C 378.1875 21.625 378.847656 21.625 379.511719 21.53125 C 380.171875 22.289062 381.121094 22.664062 382.066406 22.382812 C 384.523438 21.625 387.363281 21.910156 389.539062 19.925781 C 390.484375 19.074219 391.050781 20.304688 391.429688 21.246094 C 391.714844 21.71875 392.1875 22.003906 392.753906 22.003906 C 394.644531 21.910156 395.6875 20.585938 397.011719 19.546875 C 399.660156 17.46875 398.238281 16.335938 395.875 15.484375 C 395.402344 15.390625 394.835938 15.203125 394.363281 15.203125 C 394.078125 15.203125 393.890625 15.203125 393.605469 15.203125 C 391.808594 15.296875 390.199219 14.730469 388.496094 14.632812 C 386.226562 14.632812 383.957031 14.824219 381.6875 15.203125 C 380.835938 15.578125 379.984375 15.578125 379.132812 15.296875 C 377.242188 15.296875 375.160156 14.539062 373.648438 16.429688 C 373.648438 16.429688 373.648438 16.523438 373.648438 16.523438 C 373.457031 16.144531 373.363281 15.769531 372.984375 15.578125 C 372.605469 15.390625 372.226562 15.296875 371.851562 15.390625 C 371.28125 15.484375 370.714844 15.484375 370.148438 15.390625 C 369.769531 15.390625 369.390625 15.390625 369.011719 15.484375 C 368.445312 15.769531 367.875 15.390625 367.308594 15.390625 C 366.835938 15.390625 366.457031 15.484375 365.984375 15.578125 C 365.324219 15.863281 364.660156 16.242188 364.28125 16.902344 C 364 16.523438 363.621094 16.144531 363.054688 15.957031 C 359.929688 15.105469 356.808594 15.296875 353.6875 15.769531 C 349.808594 16.902344 345.742188 16.144531 341.863281 16.714844 C 341.296875 16.808594 340.730469 16.902344 340.257812 17.089844 C 339.3125 17.46875 338.554688 18.035156 338.269531 18.980469 C 337.609375 17.847656 336.472656 17.28125 334.960938 17.28125 C 334.488281 17.28125 334.015625 17.28125 333.542969 17.375 C 332.691406 17.5625 331.742188 17.65625 330.894531 17.753906 C 330.417969 17.941406 330.136719 18.128906 329.851562 18.507812 C 328.621094 19.359375 327.109375 18.886719 325.785156 19.074219 C 325.5 19.167969 325.21875 19.265625 324.933594 19.359375 C 324.460938 19.359375 324.082031 19.265625 323.609375 19.265625 C 322.851562 19.265625 322.097656 19.359375 321.339844 19.359375 C 320.203125 19.453125 318.972656 19.453125 317.839844 19.546875 C 317.082031 19.546875 316.324219 19.453125 315.570312 19.453125 C 315.191406 19.453125 314.8125 19.359375 314.339844 19.359375 C 313.960938 19.453125 313.582031 19.359375 313.203125 19.359375 C 312.824219 19.453125 312.351562 19.546875 311.976562 19.640625 C 310.746094 19.734375 310.082031 20.585938 309.421875 21.4375 C 309.136719 21.53125 308.949219 21.53125 308.757812 21.625 C 309.136719 21.058594 309.230469 20.492188 309.136719 19.925781 C 308.949219 19.453125 308.570312 19.167969 308.097656 18.980469 C 307.152344 18.792969 306.203125 18.886719 305.257812 18.792969 C 304.785156 18.792969 304.3125 18.792969 303.839844 18.792969 C 302.894531 18.886719 301.949219 18.980469 301.003906 19.074219 C 300.53125 19.074219 300.054688 19.074219 299.582031 19.167969 C 298.355469 19.167969 297.03125 19.167969 295.800781 19.074219 C 295.328125 19.074219 294.757812 19.074219 294.285156 19.074219 C 293.53125 19.074219 292.679688 19.074219 291.921875 19.074219 C 290.125 19.074219 288.328125 19.074219 286.53125 19.167969 C 286.058594 19.167969 285.488281 19.167969 285.015625 19.265625 C 284.542969 19.265625 284.070312 19.359375 283.597656 19.453125 C 283.125 19.546875 282.746094 19.640625 282.273438 19.734375 C 281.707031 19.925781 281.042969 20.019531 280.476562 19.925781 C 280.097656 19.832031 279.625 19.832031 279.246094 19.925781 C 278.867188 20.019531 278.488281 20.304688 278.207031 20.585938 C 278.207031 20.585938 278.207031 20.679688 278.207031 20.679688 C 274.140625 22.191406 269.882812 19.074219 265.816406 20.871094 C 264.207031 21.246094 262.410156 20.585938 260.898438 21.71875 C 260.046875 22.097656 259.667969 23.136719 258.816406 23.609375 C 258.34375 23.609375 257.964844 23.609375 257.492188 23.609375 C 257.300781 22.289062 256.355469 22.003906 255.222656 21.816406 C 254.371094 22.757812 253.800781 23.800781 252.003906 23.515625 C 250.019531 23.136719 247.84375 23.609375 245.855469 23.042969 C 245.289062 22.855469 244.816406 23.328125 244.4375 23.800781 C 244.4375 23.894531 244.34375 23.894531 244.34375 23.988281 C 239.707031 19.925781 234.507812 22.003906 229.492188 22.949219 C 223.628906 23.042969 217.859375 24.175781 211.992188 24.175781 C 210.574219 25.78125 209.722656 23.421875 208.496094 23.703125 C 206.601562 24.175781 204.804688 24.554688 202.914062 24.933594 C 202.347656 23.703125 201.398438 23.515625 200.074219 23.800781 C 194.777344 25.121094 189.480469 23.800781 184.089844 24.554688 C 180.023438 25.121094 175.765625 24.460938 171.605469 24.460938 C 165.644531 24.460938 159.6875 25.5 153.820312 24.175781 C 152.875 25.308594 151.457031 25.121094 150.132812 25.214844 C 148.996094 25.308594 147.863281 25.308594 146.726562 25.40625 C 146.347656 25.308594 145.96875 25.214844 145.59375 25.214844 C 139.445312 25.214844 133.296875 25.40625 127.148438 25.214844 C 120.429688 25.121094 113.808594 25.972656 107.09375 25.308594 C 107 25.308594 106.90625 25.308594 106.714844 25.308594 C 107.285156 22.191406 104.257812 22.757812 102.648438 22.757812 C 97.917969 22.570312 93.191406 22.097656 88.367188 22.570312 C 83.257812 22.097656 78.246094 22.191406 73.230469 22.003906 C 65.476562 21.53125 57.625 21.625 49.867188 20.304688 C 49.300781 19.453125 48.734375 18.601562 47.597656 18.507812 C 45.894531 18.601562 44.855469 19.453125 44.476562 21.058594 C 44.097656 21.4375 45.515625 21.816406 44.476562 22.191406 C 44.191406 22.003906 43.910156 21.910156 43.625 21.816406 C 43.339844 21.246094 43.058594 20.777344 42.773438 20.207031 C 42.015625 19.832031 41.261719 19.453125 40.410156 19.074219 C 40.03125 19.265625 39.839844 19.546875 39.839844 20.019531 C 39.839844 20.398438 39.839844 20.777344 39.839844 21.152344 C 39.839844 21.152344 39.9375 21.246094 39.9375 21.34375 C 39.652344 21.34375 39.464844 21.34375 39.179688 21.34375 C 39.179688 21.625 39.179688 21.816406 39.179688 22.097656 C 39.085938 22.097656 38.992188 22.097656 38.992188 22.191406 C 38.894531 22.191406 38.894531 22.097656 38.800781 22.097656 C 38.515625 22.003906 38.234375 22.097656 37.949219 22.382812 C 37.570312 22.382812 37.191406 22.382812 36.816406 22.382812 C 36.816406 22.570312 36.816406 22.757812 36.816406 22.949219 C 36.816406 22.949219 36.71875 22.949219 36.71875 22.949219 C 36.625 22.949219 36.53125 23.042969 36.339844 23.042969 C 36.152344 22.664062 35.867188 22.289062 35.492188 22.003906 C 33.03125 23.042969 32.652344 18.128906 29.816406 20.207031 C 29.816406 20.398438 29.816406 20.585938 29.816406 20.777344 C 30.003906 21.34375 30.003906 22.003906 29.71875 22.289062 C 29.152344 22.757812 28.871094 22.097656 28.585938 21.71875 C 28.113281 21.152344 27.734375 20.585938 27.070312 19.546875 C 25.464844 22.664062 23.476562 24.554688 19.789062 23.894531 C 19.03125 23.703125 17.800781 24.269531 17.140625 24.839844 C 15.53125 26.445312 13.355469 26.445312 11.371094 26.917969 C 10.992188 27.765625 10.707031 28.523438 10.328125 29.375 C 10.234375 29.65625 10.140625 29.941406 10.140625 30.222656 C 9.476562 30.222656 9.003906 30.507812 8.816406 31.167969 C 7.585938 31.261719 6.640625 31.925781 5.980469 32.867188 C 4.84375 34.378906 3.519531 35.609375 1.722656 36.363281 C 1.15625 36.648438 0.304688 37.027344 0.683594 37.96875 C 2.007812 39.199219 3.898438 38.632812 5.503906 39.199219 C 7.207031 40.617188 9.382812 40.425781 11.371094 40.425781 C 13.453125 40.519531 13.828125 41.75 13.734375 43.355469 C 14.207031 44.679688 14.679688 46 15.910156 46.851562 C 17.519531 47.984375 16.382812 48.929688 15.910156 50.0625 C 15.058594 50.914062 14.113281 51.765625 13.261719 52.613281 C 12.410156 53.464844 12.882812 54.125 13.546875 54.789062 C 13.925781 55.449219 14.207031 56.203125 14.585938 56.867188 C 13.640625 57.242188 12.789062 57.714844 12.695312 58.753906 C 12.503906 60.265625 11.179688 60.738281 10.140625 61.496094 C 9.761719 61.402344 9.289062 61.402344 8.910156 61.304688 C 6.734375 62.914062 6.734375 62.914062 8.910156 63.761719 C 9.003906 63.859375 9.195312 64.140625 9.289062 64.140625 C 9.574219 64.046875 9.855469 63.859375 10.140625 63.761719 C 10.898438 63.667969 11.652344 63.667969 12.410156 63.574219 C 11.652344 65.273438 10.140625 66.410156 8.816406 67.542969 C 7.304688 68.863281 7.304688 70.28125 8.53125 71.792969 C 9.003906 71.792969 9.382812 71.605469 9.761719 71.320312 C 10.234375 71.320312 10.707031 71.320312 11.277344 71.414062 C 12.316406 71.511719 12.976562 71.886719 13.167969 73.023438 C 13.453125 74.535156 13.546875 75.855469 12.316406 76.988281 C 11.652344 77.085938 11.277344 77.367188 11.085938 78.027344 C 10.425781 78.125 10.140625 78.5 9.953125 79.070312 C 8.816406 79.070312 7.679688 79.164062 6.546875 79.164062 C 5.882812 79.257812 5.128906 79.351562 4.464844 79.445312 C 5.503906 81.050781 6.546875 82.660156 8.816406 82.660156 C 9.289062 83.601562 10.328125 83.601562 11.085938 83.886719 C 9.667969 85.019531 8.53125 86.25 8.816406 88.136719 C 7.585938 88.800781 6.828125 90.121094 5.316406 90.40625 C 4.464844 89.839844 3.519531 90.3125 2.480469 90.5 C 2.855469 91.066406 3.234375 91.632812 3.707031 92.296875 C 3.898438 92.769531 4.277344 93.050781 4.75 93.238281 C 5.03125 93.238281 5.316406 93.238281 5.601562 93.238281 C 5.601562 93.335938 5.695312 93.429688 5.695312 93.523438 C 6.453125 95.035156 7.398438 96.359375 9.101562 97.019531 C 9.953125 97.207031 10.800781 97.398438 11.652344 97.585938 C 12.976562 98.625 13.925781 99.855469 14.019531 101.742188 C 13.074219 102.972656 12.316406 104.199219 12.789062 105.710938 C 13.828125 105.804688 14.777344 105.996094 15.816406 106.089844 C 15.910156 106.277344 16.003906 106.46875 16.195312 106.5625 C 16.949219 107.222656 17.800781 107.789062 18.652344 108.261719 C 19.882812 109.019531 21.207031 109.679688 22.53125 110.152344 C 22.246094 111.097656 22.722656 112.042969 23.289062 112.984375 C 23.855469 113.648438 24.519531 114.214844 25.273438 114.496094 C 28.113281 115.347656 31.800781 114.496094 33.316406 117.992188 C 33.597656 118.464844 33.882812 118.84375 34.167969 119.222656 C 34.542969 119.882812 35.015625 120.449219 35.394531 121.015625 C 36.53125 122.527344 38.234375 124.039062 40.125 123.566406 C 42.113281 123 41.640625 121.109375 41.355469 119.410156 C 41.164062 118.371094 43.246094 118.464844 43.246094 117.144531 C 44.289062 118.183594 45.613281 118.65625 47.125 118.75 C 47.03125 119.03125 47.03125 119.316406 47.21875 119.316406 C 50.8125 120.167969 53.273438 123.378906 56.867188 124.039062 C 59.042969 123.09375 60.273438 121.488281 60.839844 119.316406 C 62.257812 120.542969 63.960938 120.449219 65.757812 119.789062 C 66.230469 119.503906 66.515625 119.222656 66.703125 118.84375 C 68.125 118.464844 68.125 118.558594 68.597656 120.070312 C 69.730469 120.734375 70.488281 120.070312 71.246094 119.410156 C 71.90625 118.65625 72.378906 117.804688 72.570312 116.765625 C 72.570312 116.292969 72.476562 115.820312 72.191406 115.347656 C 72.191406 115.347656 72.097656 115.347656 72.097656 115.347656 C 72.191406 115.253906 72.191406 115.160156 72.191406 115.066406 C 72.285156 115.066406 72.285156 115.066406 72.378906 115.066406 C 73.136719 114.78125 73.800781 114.496094 74.460938 114.023438 C 75.125 113.648438 75.785156 113.363281 76.449219 112.984375 C 83.164062 109.019531 89.972656 107.789062 97.445312 111.378906 C 99.8125 112.515625 102.363281 112.417969 103.972656 109.867188 C 104.539062 109.019531 104.917969 108.074219 105.109375 107.035156 C 105.109375 107.035156 105.109375 107.035156 105.109375 106.941406 C 105.203125 106.941406 105.203125 106.941406 105.296875 106.941406 C 111.160156 110.71875 117.40625 108.261719 123.554688 107.507812 C 123.648438 107.316406 123.648438 107.128906 123.648438 107.035156 C 124.78125 108.167969 126.390625 108.261719 127.902344 108.355469 C 128.945312 108.449219 129.984375 108.449219 131.121094 108.449219 C 129.984375 108.828125 128.851562 109.207031 128 110.246094 C 128 110.625 128 110.90625 128 111.285156 C 129.511719 111.472656 129.324219 114.023438 131.402344 113.269531 C 131.5 112.890625 131.59375 112.515625 131.78125 112.230469 C 133.105469 110.90625 136.132812 111.664062 136.417969 109.019531 C 136.699219 109.207031 137.078125 109.300781 137.175781 109.585938 C 137.363281 110.152344 137.550781 110.625 138.023438 111.003906 C 138.023438 111.097656 138.023438 111.191406 138.121094 111.285156 C 138.6875 111.945312 139.445312 112.230469 140.296875 112.230469 C 140.863281 112.230469 141.429688 112.136719 141.902344 112.042969 C 142.472656 111.851562 142.945312 111.664062 143.511719 111.285156 C 143.796875 111.285156 144.078125 111.378906 144.269531 111.378906 C 144.550781 111.851562 144.835938 112.324219 145.121094 112.796875 C 146.539062 114.6875 146.917969 114.6875 148.144531 112.796875 C 148.429688 112.324219 148.714844 111.851562 148.996094 111.378906 C 149.753906 111.285156 150.511719 111.097656 151.269531 111.003906 C 152.402344 111.097656 153.632812 111.097656 154.765625 111.191406 C 155.335938 111.191406 155.996094 111.191406 156.566406 111.191406 C 156.753906 111.285156 156.847656 111.378906 157.039062 111.472656 C 157.414062 111.472656 157.699219 111.472656 157.984375 111.285156 C 158.171875 111.472656 158.265625 111.570312 158.363281 111.757812 C 160.914062 113.082031 163.753906 112.703125 166.496094 112.703125 C 166.496094 112.703125 166.589844 112.703125 166.589844 112.703125 C 166.496094 112.890625 166.402344 113.082031 166.308594 113.269531 C 166.210938 113.554688 166.210938 114.121094 166.308594 114.214844 C 167.160156 114.6875 168.105469 114.59375 168.957031 114.214844 C 169.523438 113.929688 169.617188 113.363281 169.429688 112.796875 C 169.335938 112.515625 169.238281 112.230469 169.144531 112.042969 C 169.335938 111.945312 169.523438 111.851562 169.710938 111.757812 C 169.902344 111.570312 169.996094 111.378906 169.996094 111.191406 C 170.183594 111.378906 170.375 111.472656 170.660156 111.378906 C 171.035156 113.082031 171.132812 114.875 173.683594 114.96875 C 175.765625 113.835938 178.320312 113.082031 179.078125 110.433594 C 179.078125 110.433594 179.171875 110.433594 179.171875 110.53125 C 179.359375 110.53125 179.550781 110.53125 179.738281 110.53125 C 180.683594 110.53125 180.023438 111.664062 180.683594 111.757812 C 182.578125 112.609375 184.375 112.796875 185.886719 111.097656 C 186.453125 110.339844 187.304688 110.246094 188.0625 110.152344 C 188.0625 110.152344 188.0625 110.152344 188.0625 110.246094 C 188.347656 110.625 188.726562 110.90625 189.199219 111.097656 C 192.414062 112.042969 195.628906 112.515625 198.941406 111.757812 C 199.035156 111.757812 199.035156 111.664062 199.128906 111.664062 C 199.792969 112.703125 201.210938 113.175781 202.15625 113.929688 C 202.914062 114.214844 203.671875 114.308594 204.425781 114.121094 C 206.695312 113.363281 208.683594 111.757812 211.332031 112.324219 C 211.992188 112.515625 212.65625 112.796875 213.316406 113.082031 C 213.980469 113.363281 214.640625 113.648438 215.304688 113.835938 C 216.0625 113.929688 216.722656 113.742188 217.386719 113.363281 C 217.765625 113.082031 218.140625 112.796875 218.519531 112.417969 C 218.519531 112.230469 218.519531 111.945312 218.519531 111.757812 C 218.613281 111.757812 218.710938 111.851562 218.898438 111.851562 C 227.886719 111.378906 236.871094 112.609375 245.855469 111.097656 C 249.355469 109.585938 253.234375 110.8125 256.640625 109.585938 C 256.828125 109.492188 257.019531 109.300781 257.207031 109.113281 C 258.34375 109.867188 259.382812 110.8125 259.382812 112.324219 C 258.625 112.324219 257.871094 112.324219 257.113281 112.324219 C 256.355469 112.042969 255.503906 111.945312 254.75 112.324219 C 253.519531 112.703125 253.707031 113.742188 253.519531 114.59375 C 252.382812 115.160156 251.25 115.726562 250.113281 116.386719 C 249.074219 117.046875 248.695312 117.992188 249.925781 118.9375 C 252.003906 120.167969 254.179688 120.828125 256.546875 119.695312 C 256.921875 119.410156 257.300781 119.03125 257.492188 118.558594 C 257.492188 118.277344 257.492188 118.089844 257.492188 117.804688 C 257.492188 117.804688 257.492188 117.804688 257.492188 117.710938 C 257.964844 117.519531 258.34375 117.332031 258.816406 117.144531 C 259.761719 117.144531 260.707031 117.046875 261.746094 117.046875 C 261.746094 117.425781 261.84375 117.710938 261.9375 118.089844 C 262.316406 117.710938 262.695312 117.332031 263.070312 116.953125 C 263.070312 116.859375 263.070312 116.671875 263.070312 116.578125 C 263.546875 116.480469 264.019531 116.480469 264.492188 116.386719 C 264.773438 116.386719 264.964844 116.386719 265.246094 116.386719 C 264.964844 117.332031 265.34375 118.277344 266.003906 119.128906 C 266.382812 119.410156 266.761719 119.597656 267.234375 119.695312 C 267.800781 119.695312 268.464844 119.597656 268.558594 120.449219 C 268.558594 120.640625 268.652344 120.828125 268.652344 121.015625 C 268.84375 121.109375 268.9375 121.300781 269.125 121.394531 C 269.882812 122.152344 270.542969 122.152344 271.300781 121.394531 C 271.679688 121.109375 272.058594 120.828125 272.53125 120.542969 C 273.382812 120.921875 274.328125 120.734375 275.179688 120.921875 C 275.652344 121.015625 276.03125 121.109375 276.503906 121.109375 C 277.164062 121.015625 277.828125 120.921875 278.300781 120.355469 C 278.964844 119.976562 279.53125 119.503906 280.003906 118.9375 C 280.003906 119.222656 280.097656 119.597656 280.191406 119.882812 C 280.382812 120.070312 280.476562 120.167969 280.664062 120.355469 C 283.3125 119.503906 286.058594 119.316406 288.800781 119.316406 C 289.746094 119.316406 290.597656 118.9375 291.257812 118.277344 C 292.488281 118.089844 293.53125 118.558594 294.570312 119.03125 C 295.800781 119.503906 296.933594 119.316406 297.785156 118.464844 C 297.785156 118.464844 297.882812 118.464844 297.882812 118.464844 C 298.355469 118.65625 298.828125 118.65625 299.300781 118.65625 C 299.394531 118.65625 299.488281 118.65625 299.582031 118.558594 C 300.054688 119.410156 300.71875 119.976562 301.757812 118.84375 C 302.421875 118.089844 303.554688 118.183594 304.3125 117.710938 C 304.597656 117.710938 304.878906 117.710938 305.164062 117.710938 C 305.636719 117.710938 306.015625 117.617188 306.488281 117.519531 C 306.960938 117.710938 307.339844 117.898438 307.8125 117.804688 C 311.027344 117.238281 314.246094 117.046875 317.367188 116.292969 C 319.921875 115.632812 322.472656 115.347656 325.027344 114.96875 C 325.027344 115.066406 325.21875 115.066406 325.5 115.066406 C 325.785156 115.066406 326.070312 114.96875 326.351562 114.6875 L 326.351562 114.214844 C 326.445312 114.121094 326.636719 114.121094 326.730469 114.121094 C 327.015625 113.929688 327.296875 113.742188 327.582031 113.648438 C 329.378906 113.554688 331.269531 113.554688 333.066406 113.457031 C 333.824219 113.175781 334.675781 112.796875 335.433594 112.515625 C 335.527344 112.609375 335.621094 112.703125 335.8125 112.796875 C 336.378906 113.835938 337.039062 114.214844 338.648438 113.648438 C 339.3125 113.457031 339.785156 113.269531 340.257812 113.175781 C 340.636719 113.175781 341.011719 113.082031 341.390625 112.890625 C 342.90625 112.703125 343.472656 113.457031 344.984375 115.820312 C 345.363281 116.386719 345.648438 117.144531 346.972656 117.144531 C 347.351562 115.347656 347.730469 113.363281 349.054688 111.757812 C 349.621094 111.097656 350.09375 111.003906 350.851562 111.757812 C 352.082031 113.082031 352.175781 112.984375 353.027344 111.570312 C 354.539062 109.113281 354.539062 109.113281 357.09375 110.71875 C 357.378906 110.90625 357.753906 111.191406 358.039062 111.285156 C 358.984375 111.472656 359.457031 111.285156 358.890625 110.152344 C 358.703125 109.773438 358.796875 109.492188 358.984375 109.300781 C 359.363281 109.207031 359.835938 109.113281 360.214844 109.019531 C 361.445312 108.640625 362.578125 108.261719 363.808594 107.980469 C 365.511719 107.601562 367.308594 107.410156 368.917969 106.84375 C 370.621094 106.277344 372.605469 106.277344 374.214844 105.617188 C 374.402344 105.523438 374.496094 105.429688 374.6875 105.238281 C 378.1875 107.128906 381.308594 103.917969 384.714844 104.105469 C 385.28125 104.011719 385.847656 103.917969 386.320312 103.726562 C 387.363281 103.347656 388.308594 102.878906 389.160156 102.308594 C 389.347656 102.121094 389.539062 101.933594 389.726562 101.742188 C 390.863281 102.214844 391.808594 101.648438 392.566406 100.703125 C 393.699219 101.648438 395.023438 101.742188 396.441406 101.554688 C 397.105469 101.554688 397.671875 101.367188 398.238281 101.082031 C 400.226562 102.121094 401.929688 102.214844 403.253906 99.664062 C 403.253906 99.664062 403.253906 99.757812 403.253906 99.757812 C 403.726562 100.042969 404.199219 100.324219 404.765625 100.421875 C 411.671875 99.757812 418.199219 98.246094 424.441406 95.222656 C 424.535156 95.035156 424.535156 94.847656 424.628906 94.65625 C 426.144531 94.75 427.375 93.808594 428.886719 93.710938 C 430.210938 91.445312 429.359375 90.027344 427.847656 88.894531 C 428.320312 88.988281 428.792969 89.082031 429.171875 88.894531 C 429.359375 88.894531 429.453125 88.800781 429.644531 88.800781 C 429.832031 88.894531 429.925781 89.082031 430.117188 89.273438 C 431.347656 90.878906 432.859375 89.839844 434.183594 89.554688 C 434.941406 89.367188 434.847656 88.328125 434.847656 87.476562 C 435.128906 87.667969 435.414062 87.761719 435.792969 87.855469 C 438.25 88.042969 440.519531 87.667969 442.695312 86.53125 C 443.074219 86.15625 443.359375 85.777344 443.359375 85.210938 C 442.601562 82.28125 441.65625 79.351562 442.128906 76.328125 C 442.128906 76.328125 442.035156 76.234375 442.035156 76.234375 C 442.886719 76.707031 443.644531 76.613281 444.492188 76.140625 C 446.480469 70.375 441.371094 72.550781 439.007812 71.699219 C 438.441406 71.605469 437.871094 71.511719 437.304688 71.511719 C 436.738281 71.511719 436.171875 71.511719 435.601562 71.511719 C 434.75 71.511719 433.898438 71.320312 433.046875 71.320312 C 432.199219 71.511719 431.347656 71.605469 430.683594 72.171875 C 430.683594 72.171875 430.589844 72.171875 430.589844 72.171875 C 430.023438 72.171875 429.359375 72.171875 428.792969 72.171875 C 428.414062 72.171875 428.035156 72.171875 427.65625 72.171875 C 428.414062 71.984375 429.171875 71.792969 429.925781 71.792969 C 431.628906 71.511719 432.859375 70.566406 433.710938 69.242188 C 433.898438 69.808594 434.277344 70.28125 434.75 70.753906 C 438.25 70.847656 441.46875 70.472656 443.738281 67.542969 C 444.117188 66.125 443.738281 65.371094 442.980469 64.800781 C 445.628906 64.425781 448.941406 65.085938 449.695312 61.023438 Z M 369.390625 20.019531 C 369.390625 20.113281 369.390625 20.113281 369.390625 20.207031 C 369.390625 20.207031 369.296875 20.207031 369.296875 20.207031 C 369.296875 20.207031 369.296875 20.207031 369.203125 20.207031 C 369.296875 20.113281 369.390625 20.019531 369.390625 20.019531 Z M 23.097656 53.652344 C 23.097656 53.652344 23.097656 53.558594 23.097656 53.652344 C 23.195312 53.558594 23.195312 53.558594 23.289062 53.558594 C 23.195312 53.652344 23.097656 53.652344 23.097656 53.652344 Z M 23.097656 53.558594 C 23.097656 53.558594 23.003906 53.558594 23.097656 53.558594 C 23.195312 53.464844 23.382812 53.371094 23.570312 53.371094 C 23.382812 53.464844 23.195312 53.464844 23.097656 53.558594 Z M 24.140625 53.558594 C 24.140625 53.558594 24.234375 53.558594 24.140625 53.558594 C 24.234375 53.652344 24.140625 53.558594 24.140625 53.558594 Z M 64.71875 27.863281 C 64.8125 27.863281 64.8125 27.765625 64.90625 27.765625 C 64.90625 27.765625 64.90625 27.863281 65.003906 27.863281 C 64.90625 27.863281 64.8125 27.863281 64.71875 27.863281 Z M 72.097656 107.882812 Z M 83.730469 49.214844 C 83.730469 49.214844 83.730469 49.117188 83.730469 49.214844 C 83.730469 49.117188 83.730469 49.117188 83.730469 49.214844 C 83.730469 49.117188 83.730469 49.117188 83.730469 49.214844 Z M 110.3125 42.222656 C 110.214844 42.222656 110.214844 42.222656 110.3125 42.222656 C 110.214844 42.128906 110.3125 42.128906 110.3125 42.128906 C 110.3125 42.128906 110.3125 42.128906 110.3125 42.222656 Z M 113.808594 36.082031 C 113.90625 35.890625 114 35.703125 114 35.515625 C 114 35.515625 113.90625 35.515625 113.90625 35.515625 C 113.90625 35.515625 113.90625 35.417969 113.90625 35.417969 C 113.90625 35.417969 114 35.417969 114 35.515625 C 114.09375 35.703125 114.1875 35.890625 114.378906 35.988281 C 114.1875 36.082031 114 36.082031 113.808594 36.082031 Z M 116.363281 39.292969 Z M 117.40625 50.160156 C 117.5 50.160156 117.5 50.160156 117.40625 50.160156 C 117.5 50.160156 117.5 50.160156 117.40625 50.160156 C 117.5 50.160156 117.5 50.160156 117.40625 50.160156 C 117.5 50.253906 117.5 50.253906 117.40625 50.160156 C 117.5 50.253906 117.40625 50.253906 117.40625 50.160156 Z M 117.5 51.386719 Z M 122.039062 47.890625 C 122.132812 47.796875 122.132812 47.703125 122.230469 47.605469 C 122.324219 47.703125 122.417969 47.796875 122.511719 47.890625 C 122.324219 47.890625 122.230469 47.890625 122.039062 47.890625 Z M 123.554688 106.089844 C 123.648438 106.089844 123.648438 106.089844 123.554688 106.089844 C 123.648438 106.089844 123.648438 106.089844 123.554688 106.089844 C 123.648438 106.089844 123.648438 106.089844 123.554688 106.089844 Z M 125.824219 53.464844 Z M 126.675781 53.371094 C 126.863281 53.277344 127.054688 53.179688 127.242188 53.085938 C 127.335938 53.179688 127.527344 53.371094 127.621094 53.464844 C 127.242188 53.464844 126.957031 53.371094 126.675781 53.371094 Z M 143.226562 31.640625 Z M 146.820312 56.015625 C 146.820312 56.015625 146.820312 55.921875 146.820312 56.015625 C 146.820312 55.921875 146.820312 55.921875 146.820312 56.015625 C 146.820312 55.921875 146.820312 56.015625 146.820312 56.015625 Z M 153.539062 59.132812 C 153.441406 59.132812 153.347656 59.039062 153.253906 59.039062 C 153.347656 59.039062 153.441406 59.039062 153.539062 59.039062 C 153.539062 59.039062 153.539062 59.132812 153.539062 59.132812 Z M 153.539062 59.039062 Z M 153.917969 42.503906 C 153.726562 42.316406 153.726562 42.128906 154.011719 42.03125 C 154.105469 42.03125 154.292969 42.128906 154.390625 42.128906 C 154.199219 42.222656 154.011719 42.316406 153.917969 42.503906 Z M 164.132812 26.820312 C 164.132812 26.917969 164.132812 26.917969 164.132812 26.820312 Z M 165.078125 42.503906 C 164.320312 42.503906 163.660156 42.503906 162.902344 42.503906 C 162.808594 42.410156 162.808594 42.410156 162.714844 42.316406 C 164.039062 42.222656 165.363281 42.222656 166.6875 42.222656 C 166.210938 42.222656 165.644531 42.410156 165.078125 42.503906 Z M 168.765625 56.015625 C 168.765625 56.015625 168.859375 55.828125 168.859375 55.828125 C 168.859375 55.828125 168.957031 55.828125 168.957031 55.828125 C 168.859375 55.828125 168.765625 55.921875 168.765625 56.015625 Z M 170.847656 62.722656 C 170.847656 62.628906 170.941406 62.535156 170.941406 62.441406 C 171.035156 62.441406 171.132812 62.441406 171.132812 62.441406 C 171.035156 62.628906 170.941406 62.628906 170.847656 62.722656 Z M 172.738281 42.695312 C 172.265625 42.316406 171.792969 42.128906 171.226562 41.9375 C 171.886719 41.84375 172.550781 41.75 173.210938 41.65625 C 173.023438 42.03125 172.929688 42.316406 172.738281 42.695312 Z M 186.644531 36.554688 C 186.738281 36.554688 186.738281 36.457031 186.644531 36.554688 C 186.550781 36.269531 186.453125 36.082031 186.359375 35.890625 C 186.453125 35.988281 186.550781 36.175781 186.644531 36.269531 C 186.738281 36.363281 186.832031 36.363281 186.929688 36.457031 C 186.832031 36.457031 186.738281 36.554688 186.644531 36.554688 Z M 187.304688 51.292969 Z M 202.347656 58.472656 C 202.347656 58.753906 202.441406 58.945312 202.535156 59.226562 C 202.347656 58.945312 202.15625 58.753906 201.96875 58.472656 C 202.15625 58.472656 202.441406 58.378906 202.628906 58 C 202.535156 58.09375 202.441406 58.285156 202.347656 58.472656 Z M 207.167969 33.4375 C 207.167969 33.4375 207.265625 33.53125 207.265625 33.53125 C 207.167969 33.53125 207.167969 33.53125 207.074219 33.53125 C 207.074219 33.53125 207.074219 33.53125 207.167969 33.4375 Z M 207.265625 99.191406 C 207.265625 99.285156 207.167969 99.285156 207.167969 99.382812 C 207.167969 99.285156 207.167969 99.285156 207.074219 99.191406 C 207.167969 99.191406 207.265625 99.191406 207.265625 99.191406 Z M 216.25 69.335938 C 216.25 69.335938 216.25 69.242188 216.25 69.242188 C 216.25 69.148438 216.25 69.054688 216.25 69.054688 C 216.25 69.054688 216.34375 69.054688 216.34375 69.054688 C 216.34375 69.054688 216.34375 69.148438 216.34375 69.335938 C 216.34375 69.242188 216.25 69.242188 216.25 69.335938 Z M 224.761719 40.519531 C 224.386719 40.519531 224.007812 40.425781 223.628906 40.519531 C 223.4375 40.519531 223.15625 40.617188 222.964844 40.710938 C 222.492188 40.425781 221.925781 40.238281 221.359375 40.144531 C 221.265625 39.859375 221.167969 39.480469 221.167969 39.199219 C 221.832031 38.914062 222.492188 38.632812 223.15625 38.253906 C 223.535156 38.253906 223.914062 38.160156 224.195312 38.160156 C 224.386719 38.160156 224.480469 38.066406 224.667969 38.066406 C 224.953125 38.066406 225.140625 38.253906 225.425781 38.347656 C 225.425781 38.914062 225.613281 39.292969 225.992188 39.671875 C 225.613281 39.765625 225.238281 40.144531 224.761719 40.519531 Z M 230.628906 32.492188 C 230.535156 32.492188 230.535156 32.585938 230.535156 32.585938 C 230.4375 32.492188 230.4375 32.492188 230.34375 32.394531 C 230.4375 32.394531 230.535156 32.492188 230.628906 32.492188 Z M 259.761719 56.867188 C 259.667969 56.867188 259.574219 56.960938 259.574219 56.960938 C 259.667969 56.867188 259.761719 56.867188 259.761719 56.773438 C 259.761719 56.773438 259.761719 56.773438 259.761719 56.867188 Z M 259.761719 113.648438 C 259.761719 113.554688 259.761719 113.554688 259.761719 113.457031 C 259.761719 113.554688 259.855469 113.554688 259.855469 113.648438 C 259.855469 113.648438 259.761719 113.648438 259.761719 113.648438 Z M 264.300781 29.183594 Z M 268.9375 69.335938 C 268.9375 69.335938 269.03125 69.335938 269.03125 69.335938 C 269.03125 69.335938 269.03125 69.335938 268.9375 69.335938 Z M 269.125 83.601562 C 269.125 83.414062 269.03125 83.226562 269.03125 83.035156 C 269.125 83.132812 269.21875 83.320312 269.21875 83.601562 C 269.21875 83.601562 269.125 83.601562 269.125 83.601562 Z M 272.4375 56.015625 C 272.4375 56.015625 272.4375 55.921875 272.4375 55.921875 C 272.4375 55.921875 272.53125 55.921875 272.53125 55.921875 C 272.53125 55.921875 272.53125 56.015625 272.4375 56.015625 Z M 275.839844 56.867188 C 275.9375 56.773438 275.9375 56.675781 276.03125 56.582031 C 276.125 56.582031 276.125 56.675781 276.21875 56.675781 C 276.125 56.773438 275.9375 56.867188 275.839844 56.867188 Z M 280.949219 113.835938 C 281.042969 113.742188 281.042969 113.835938 281.042969 113.835938 C 281.042969 113.835938 280.949219 113.835938 280.949219 113.835938 Z M 281.988281 29.375 C 281.988281 29.277344 281.988281 29.277344 281.988281 29.375 C 282.085938 29.277344 281.988281 29.375 281.988281 29.375 Z M 293.625 27.765625 C 293.53125 27.765625 293.339844 27.671875 293.246094 27.671875 C 293.339844 27.390625 293.53125 27.292969 293.625 27.292969 C 293.625 27.390625 293.625 27.578125 293.625 27.765625 Z M 300.054688 31.167969 C 300.054688 30.882812 300.054688 30.601562 300.054688 30.414062 C 300.246094 30.601562 300.339844 30.882812 300.53125 31.167969 C 300.339844 31.167969 300.152344 31.167969 300.054688 31.167969 Z M 304.125 32.300781 Z M 311.125 26.917969 C 311.027344 26.917969 311.027344 26.917969 311.125 26.917969 C 311.21875 26.820312 311.21875 26.726562 311.21875 26.726562 C 311.21875 26.726562 311.125 26.820312 311.125 26.917969 Z M 322.664062 28.902344 C 322.570312 28.710938 322.378906 28.523438 322.378906 28.429688 C 322.570312 28.617188 322.664062 28.710938 322.851562 28.902344 C 322.757812 28.902344 322.664062 28.902344 322.664062 28.902344 Z M 337.703125 33.339844 Z M 343.757812 43.640625 C 343.851562 43.640625 343.851562 43.640625 343.757812 43.640625 C 343.851562 43.640625 343.851562 43.640625 343.757812 43.640625 C 343.851562 43.734375 343.851562 43.734375 343.945312 43.734375 C 344.039062 43.828125 344.136719 44.015625 344.230469 44.113281 C 344.039062 43.921875 343.945312 43.828125 343.757812 43.640625 Z M 348.484375 27.292969 C 347.730469 26.351562 346.6875 25.878906 345.554688 25.78125 C 345.648438 25.40625 345.554688 25.121094 345.460938 24.742188 C 345.460938 24.648438 345.363281 24.648438 345.363281 24.648438 C 345.648438 24.648438 345.933594 24.648438 346.214844 24.554688 C 347.351562 23.894531 348.484375 24.082031 349.621094 24.742188 C 349.621094 25.027344 349.621094 25.308594 349.714844 25.5 C 348.863281 25.972656 348.582031 26.632812 348.484375 27.292969 Z M 352.835938 107.222656 C 352.835938 107.222656 352.742188 107.128906 352.742188 107.128906 C 352.835938 107.128906 352.835938 107.128906 352.933594 107.035156 C 352.835938 107.128906 352.835938 107.222656 352.835938 107.222656 Z M 358.703125 42.601562 C 358.605469 42.601562 358.605469 42.503906 358.703125 42.601562 C 358.605469 42.503906 358.703125 42.503906 358.703125 42.601562 C 358.703125 42.503906 358.703125 42.601562 358.703125 42.601562 Z M 359.742188 46.09375 C 359.742188 46.09375 359.742188 46 359.742188 46 C 359.742188 46.09375 359.835938 46.09375 359.835938 46.09375 C 359.835938 46.09375 359.835938 46.09375 359.742188 46.09375 Z M 364.472656 54.597656 Z M 364.566406 55.070312 Z M 364.566406 54.882812 C 364.566406 54.789062 364.660156 54.691406 364.660156 54.597656 C 364.660156 54.597656 364.472656 54.503906 364.472656 54.503906 C 364.472656 54.503906 364.566406 54.410156 364.566406 54.410156 C 364.566406 54.503906 364.660156 54.597656 364.660156 54.691406 C 364.660156 54.691406 364.660156 54.691406 364.753906 54.691406 C 364.753906 54.789062 364.660156 54.882812 364.566406 54.882812 Z M 375.160156 85.964844 C 375.253906 85.871094 375.253906 85.871094 375.160156 85.964844 C 375.253906 85.964844 375.253906 85.964844 375.160156 85.964844 Z M 379.511719 66.976562 C 379.511719 66.976562 379.511719 66.878906 379.511719 66.976562 C 379.511719 66.878906 379.511719 66.878906 379.511719 66.976562 C 379.511719 66.878906 379.511719 66.976562 379.511719 66.976562 Z M 420.753906 62.347656 Z M 420.753906 62.441406 Z M 418.671875 74.34375 C 418.007812 73.964844 417.253906 73.871094 416.496094 73.871094 C 416.308594 73.871094 416.210938 73.871094 416.023438 73.871094 C 416.308594 73.777344 416.496094 73.589844 416.78125 73.496094 C 417.726562 72.832031 418.859375 72.359375 419.617188 71.511719 C 420.753906 72.265625 421.792969 72.265625 422.832031 71.320312 C 422.929688 71.511719 423.117188 71.699219 423.304688 71.886719 C 423.496094 71.984375 423.683594 72.078125 423.875 72.078125 C 421.886719 72.265625 420.089844 72.550781 418.671875 74.34375 Z M 423.777344 69.902344 C 423.96875 69.902344 424.0625 70 424.15625 70.1875 C 423.96875 70.09375 423.875 70 423.777344 69.902344 Z M 431.0625 78.40625 C 431.15625 78.40625 431.15625 78.40625 431.25 78.40625 C 431.628906 78.40625 432.007812 78.40625 432.480469 78.3125 C 432.574219 78.40625 432.574219 78.5 432.671875 78.5 C 432.953125 78.597656 433.238281 78.5 433.332031 78.21875 C 433.898438 78.125 434.5625 78.027344 435.128906 77.839844 C 435.601562 77.652344 435.886719 77.273438 436.171875 76.894531 C 436.832031 76.894531 437.496094 76.894531 438.15625 76.894531 C 438.15625 77.273438 438.15625 77.652344 438.15625 77.933594 C 437.96875 81.050781 437.871094 81.050781 434.375 81.996094 C 434.089844 82.089844 433.804688 82.375 433.425781 82.5625 C 433.050781 82.5625 432.671875 82.5625 432.292969 82.5625 C 432.007812 82.089844 431.820312 81.523438 431.347656 81.148438 C 430.496094 80.203125 430.496094 79.351562 431.0625 78.40625 Z M 430.023438 82.753906 C 429.925781 83.035156 430.023438 83.320312 430.117188 83.601562 C 430.117188 83.601562 430.023438 83.601562 430.023438 83.601562 C 430.023438 83.601562 429.925781 83.601562 429.925781 83.601562 C 429.925781 83.507812 429.925781 83.132812 429.925781 83.132812 Z M 430.023438 82.753906 " fill-opacity="1" fill-rule="nonzero"/></g></svg>